# xmcd
#
# Track frame offsets:
#	183
#	8358
#	29768
#	48633
#	66708
#	82318
#	99770
#	118715
#	138168
#	159273
#	177983
#
# Disc length: 2622 seconds
#
# Revision: 1
# Processed by: cddbd v1.5.2PL0 Copyright (c) Steve Scherf et al.
# Submitted via: EZCDAudioConverter 3.1.0.1
#
DISCID=900a3c0b
DTITLE=黃凱芹 - 沒結果的一些感情
DYEAR=1989
DGENRE=Pop
TTITLE0=沒結果的開始 Music
TTITLE1=沒結果的一些感情
TTITLE2=若生命等候
TTITLE3=Blue Sky
TTITLE4=問青空
TTITLE5=哭泣中醒來
TTITLE6=演講
TTITLE7=彌月醉巴黎
TTITLE8=玻璃都市
TTITLE9=焚情
TTITLE10=再見了 ! 我的同學
EXTD=
EXTT0=
EXTT1=
EXTT2=
EXTT3=
EXTT4=
EXTT5=
EXTT6=
EXTT7=
EXTT8=
EXTT9=
EXTT10=
PLAYORDER=
